<?xml version="1.0" encoding="UTF-8" standalone="no"?>
<!-- Created with Inkscape (http://www.inkscape.org/) -->

<svg
   width="297mm"
   height="210mm"
   viewBox="0 0 297 210"
   version="1.1"
   id="svg1"
   xml:space="preserve"
   sodipodi:docname="esppi.svg"
   inkscape:version="1.4.2 (f4327f4, 2025-05-13)"
   xmlns:inkscape="http://www.inkscape.org/namespaces/inkscape"
   xmlns:sodipodi="http://sodipodi.sourceforge.net/DTD/sodipodi-0.dtd"
   xmlns="http://www.w3.org/2000/svg"
   xmlns:svg="http://www.w3.org/2000/svg"><sodipodi:namedview
     id="namedview1"
     pagecolor="#ffffff"
     bordercolor="#000000"
     borderopacity="0.25"
     inkscape:showpageshadow="2"
     inkscape:pageopacity="0.0"
     inkscape:pagecheckerboard="0"
     inkscape:deskcolor="#d1d1d1"
     inkscape:document-units="mm"
     inkscape:lockguides="true"
     inkscape:zoom="1.0253048"
     inkscape:cx="643.711"
     inkscape:cy="400.36874"
     inkscape:window-width="1920"
     inkscape:window-height="1017"
     inkscape:window-x="-8"
     inkscape:window-y="-8"
     inkscape:window-maximized="1"
     inkscape:current-layer="layer1" /><defs
     id="defs1"><rect
       x="-358.10443"
       y="623.9281"
       width="296.12482"
       height="140.48714"
       id="rect1" /></defs><g
     inkscape:label="Camada 1"
     inkscape:groupmode="layer"
     id="layer1"><g
       id="g3"
       transform="matrix(0.874129,0,0,1,-88.993238,-43.805916)" /><g
       id="g19"
       transform="matrix(2.7535788,0,0,2.7535788,-250.4939,-83.630251)"><text
         xml:space="preserve"
         transform="matrix(0.26585079,0,0,0.26585079,214.25409,-81.858543)"
         id="text1"
         style="font-size:69.4064px;line-height:0;font-family:'Times New Roman';-inkscape-font-specification:'Times New Roman, ';text-align:start;letter-spacing:8px;writing-mode:lr-tb;direction:ltr;white-space:pre;shape-inside:url(#rect1);fill:#1d6a35;fill-opacity:1;stroke:#1d6a35;stroke-width:3.77953;stroke-linecap:round;stroke-linejoin:round;stroke-opacity:1"><tspan
           x="-358.10352"
           y="643.06686"
           id="tspan5"><tspan
             style="font-stretch:condensed;font-family:Arial;-inkscape-font-specification:'Arial Condensed'"
             id="tspan4">ESPPI</tspan></tspan></text><text
         xml:space="preserve"
         style="font-style:normal;font-variant:normal;font-weight:normal;font-stretch:condensed;font-size:6.23905px;line-height:0;font-family:Arial;-inkscape-font-specification:'Arial Condensed';text-align:start;letter-spacing:0.779885px;writing-mode:lr-tb;direction:ltr;text-anchor:start;fill:#000000;stroke:none;stroke-width:0.368449;stroke-linecap:round;stroke-linejoin:round"
         x="214.60519"
         y="142.30685"
         id="text2"
         transform="matrix(0.87412899,0,0,1,-88.993239,-43.805917)"><tspan
           id="tspan2"
           style="font-style:normal;font-variant:normal;font-weight:bold;font-stretch:normal;font-family:Arial;-inkscape-font-specification:'Arial Bold';fill:#000000;stroke:none;stroke-width:0.368449"
           x="214.60519"
           y="142.30685"
           sodipodi:role="line">ESCOLA DE SAÚDE PÚBLICA </tspan></text><text
         xml:space="preserve"
         style="font-style:normal;font-variant:normal;font-weight:bold;font-stretch:normal;font-size:6.23905px;line-height:0;font-family:Arial;-inkscape-font-specification:'Arial Bold';text-align:start;letter-spacing:0.779885px;writing-mode:lr-tb;direction:ltr;text-anchor:start;fill:#000000;stroke:none;stroke-width:0.368449;stroke-linecap:round;stroke-linejoin:round"
         x="228.40088"
         y="149.96019"
         id="text3"
         transform="matrix(0.87412899,0,0,1,-88.993239,-43.805917)"><tspan
           sodipodi:role="line"
           id="tspan3"
           style="font-style:normal;font-variant:normal;font-weight:bold;font-stretch:normal;font-family:Arial;-inkscape-font-specification:'Arial Bold';stroke-width:0.368449"
           x="228.40088"
           y="149.96019">DO ESTADO DO PIAUÍ</tspan></text><g
         id="g18"
         transform="translate(0.63231494,9.2765468)"><path
           style="fill:#2c2e65;fill-opacity:1;stroke:none;stroke-width:0.344331;stroke-linecap:round;stroke-linejoin:round"
           d="m 113.473,62.770001 c -0.72854,-0.10506 -1.72661,-0.4123 -1.85949,-0.57241 -0.12603,-0.15187 -0.0272,-0.62152 0.47189,-2.241883 0.80833,-2.62444 1.31341,-6.53711 1.07918,-8.35996 -0.0673,-0.52337 -0.18068,-0.91203 -0.37225,-1.27546 -0.39463,-0.74864 -0.38418,-1.35122 0.0372,-2.14553 0.17222,-0.32464 0.35481,-0.83025 0.40575,-1.12359 0.0509,-0.29334 0.12075,-2.07119 0.15514,-3.95079 0.0524,-2.86417 0.042,-3.43303 -0.0641,-3.51369 -0.0696,-0.0529 -1.04907,-0.47915 -2.17649,-0.94715 -2.39541,-0.99437 -4.19079,-1.81985 -4.19079,-1.92685 0,-0.0415 0.0948,-0.13761 0.21071,-0.21355 0.72873,-0.47748 24.87324,-10.17561 29.58039,-11.88156 1.52827,-0.55387 3.30992,-1.21155 3.95922,-1.46151 0.64929,-0.24996 1.19315,-0.44185 1.20858,-0.42643 0.0154,0.0154 -5.97809,4.00067 -13.31892,8.85612 -7.34081,4.85544 -13.36103,8.86907 -13.37826,8.91918 -0.0684,0.19902 0.12347,6.04228 0.21242,6.46841 0.0523,0.25053 0.21342,0.63083 0.35807,0.8451 0.14466,0.21427 0.29022,0.55064 0.32348,0.7475 0.0731,0.4326 -0.0779,1.2119 -0.35888,1.85275 -0.33659,0.76759 -0.45468,1.41327 -0.45289,2.47643 0.002,1.17126 0.12659,1.81835 0.54565,2.833 0.38493,0.93203 0.75235,2.23905 1.22146,4.34508 l 0.36887,1.656053 -0.20644,0.16365 c -0.46233,0.36649 -1.01363,0.64051 -1.27372,0.63312 -0.15177,-0.004 -0.42408,0.0716 -0.60513,0.16859 -0.35712,0.1914 -0.91975,0.21395 -1.88066,0.0754 z"
           id="path10" /><path
           style="fill:#253d90;fill-opacity:1;stroke:none;stroke-width:0.344331;stroke-linecap:round;stroke-linejoin:round"
           d="m 120.94355,42.430598 c -1.32885,-0.47134 -4.25512,-1.619 -4.21775,-1.65417 0.0148,-0.0139 6.46347,-4.28355 14.33033,-9.48798 9.4578,-6.25694 14.3651,-9.45224 14.48558,-9.43203 1.36228,0.22853 5.92227,1.39293 6.65673,1.69981 l 0.35805,0.1496 -1.18423,0.77525 c -0.65133,0.42639 -2.39364,1.51736 -3.87181,2.42439 -3.70425,2.273 -10.49186,6.55889 -13.93895,8.80147 -6.56145,4.26868 -8.03396,5.21661 -9.25805,5.95987 -1.44354,0.87652 -1.97697,1.16355 -2.14914,1.15643 -0.0646,-0.003 -0.60947,-0.17936 -1.21076,-0.39264 z"
           id="path11" /><path
           style="fill:#cd861e;fill-opacity:1;stroke:none;stroke-width:0.344331;stroke-linecap:round;stroke-linejoin:round"
           d="m 130.73726,46.164238 c -0.47602,-0.16936 -1.45994,-0.55176 -2.1865,-0.84979 -0.72656,-0.29803 -1.52568,-0.593 -1.77582,-0.65549 -0.56525,-0.1412 -1.77479,-0.76293 -2.04612,-1.05175 l -0.20259,-0.21564 0.48431,-0.38283 c 1.6262,-1.28544 11.5241,-7.71115 19.2332,-12.48618 1.49084,-0.92343 4.11464,-2.55484 5.83068,-3.62536 3.23529,-2.01828 3.87906,-2.37867 4.25179,-2.38017 0.32508,-0.001 6.51573,2.15334 7.70538,2.68185 l 0.54663,0.24284 -0.22776,0.17847 c -0.67067,0.52551 -2.77049,1.88574 -6.60507,4.27866 -6.50819,4.06135 -10.72193,6.72881 -15.00516,9.49885 -5.72312,3.70124 -6.57364,4.23585 -7.39248,4.64664 -1.0148,0.5091 -1.45915,0.52951 -2.61049,0.1199 z"
           id="path12" /><path
           style="fill:#c6241f;fill-opacity:1;stroke:none;stroke-width:0.344331;stroke-linecap:round;stroke-linejoin:round"
           d="m 139.75627,49.670478 c -3.7765,-1.52297 -5.12381,-2.09032 -5.23393,-2.20402 -0.13311,-0.13743 0.44095,-0.63287 1.70299,-1.46976 1.69301,-1.12269 10.49016,-6.70113 16.46807,-10.44273 3.0816,-1.92879 7.03781,-4.40721 8.79157,-5.50759 1.75375,-1.10039 3.27064,-2.03812 3.37085,-2.08384 0.13895,-0.0634 0.66896,0.0994 2.23206,0.68541 1.86606,0.69963 3.25542,1.16309 5.90487,1.96972 0.58571,0.17833 0.92754,0.32705 0.90742,0.39481 -0.0407,0.13721 -0.89519,0.68859 -3.25922,2.10313 -1.86622,1.11666 -10.84087,6.76544 -17.71979,11.15308 -5.19272,3.31212 -10.30479,6.48548 -10.44766,6.48548 -0.0165,0 -1.23924,-0.48766 -2.71723,-1.08369 z"
           id="path13" /><path
           style="fill:#1d6a35;fill-opacity:1;stroke:none;stroke-width:0.344331;stroke-linecap:round;stroke-linejoin:round"
           d="m 146.13389,52.217748 c -0.36866,-0.11254 -0.93979,-0.4297 -1.17694,-0.65356 l -0.22034,-0.208 0.41989,-0.36933 c 0.23093,-0.20314 1.4985,-1.0439 2.81681,-1.86837 1.31831,-0.82446 5.5537,-3.48579 9.41196,-5.91406 9.06925,-5.70788 10.56584,-6.63677 13.25568,-8.22738 2.69575,-1.59411 5.56045,-3.17257 5.7578,-3.17257 0.22517,0 5.24414,1.66911 5.88377,1.95671 0.31482,0.14155 0.55765,0.30161 0.53962,0.35568 -0.0473,0.14193 -2.05898,1.17497 -7.94484,4.07988 -13.1224,6.47641 -22.17416,11.10162 -26.14694,13.36038 -0.50107,0.28489 -1.02849,0.56924 -1.17204,0.6319 -0.28408,0.124 -1.06104,0.13966 -1.42443,0.0287 z"
           id="path14" /><path
           style="fill:#1d6a35;fill-opacity:1;stroke:none;stroke-width:0.344331;stroke-linecap:round;stroke-linejoin:round"
           d="m 137.16012,60.957038 c -1.61031,-0.11417 -5.74093,-0.99726 -5.66933,-1.21205 0.074,-0.22205 0.96523,-0.85844 3.11841,-2.22676 6.43539,-4.08965 8.48203,-5.30639 8.92569,-5.30639 0.10339,0 0.33257,0.0982 0.50927,0.21832 0.42719,0.29029 1.35896,0.57033 2.3256,0.69897 0.92482,0.12307 1.37949,0.0685 1.84146,-0.2211 0.57764,-0.36208 2.13228,-1.19986 8.85519,-4.77196 7.54296,-4.00783 7.81068,-4.14551 7.87095,-4.048 0.1057,0.17104 0.23733,1.68932 0.23733,2.73756 v 1.13253 l -0.35036,0.32753 c -0.1927,0.18014 -0.74936,0.54378 -1.23702,0.80807 -0.48765,0.2643 -2.12361,1.25235 -3.63545,2.19567 -6.74234,4.20692 -14.9029,9.02269 -16.13162,9.5197 -0.42841,0.17329 -0.66951,0.18932 -3.0615,0.20353 -1.42806,0.008 -3.04744,-0.0165 -3.59862,-0.0556 z"
           id="path15" /><path
           style="fill:#c6241f;fill-opacity:1;stroke:none;stroke-width:0.344331;stroke-linecap:round;stroke-linejoin:round"
           d="m 128.2707,58.740318 c -1.11869,-0.46022 -3.28393,-1.72062 -4.21027,-2.45084 -0.36517,-0.28785 -0.70261,-0.84607 -0.70261,-1.1623 0,-0.30948 0.32535,-0.85455 0.72633,-1.2168 0.61217,-0.55307 7.39705,-4.98028 8.44838,-5.51268 l 0.38316,-0.19403 0.75565,0.23665 c 1.14656,0.35906 6.43813,2.3087 6.91091,2.54627 0.65172,0.3275 0.70776,0.44366 0.3674,0.7616 -0.15707,0.14673 -0.7255,0.52344 -1.26317,0.83713 -0.53768,0.3137 -2.77918,1.69582 -4.98113,3.07139 -3.91258,2.44421 -5.40557,3.29906 -5.75417,3.29469 -0.095,-10e-4 -0.40118,-0.0962 -0.68048,-0.21108 z"
           id="path16" /><path
           style="fill:#cd861e;fill-opacity:1;stroke:none;stroke-width:0.344331;stroke-linecap:round;stroke-linejoin:round"
           d="m 123.69237,51.948658 c -0.0984,-0.49193 -0.17847,-4.69712 -0.11012,-5.78206 0.0823,-1.30694 0.17222,-1.46011 0.77698,-1.32423 0.62966,0.14148 2.58846,0.87919 4.23427,1.59468 1.62644,0.70707 2.14376,0.97752 2.14376,1.12074 0,0.14646 -1.58267,1.28267 -3.99417,2.86745 -2.2835,1.50067 -2.74984,1.7866 -2.91384,1.7866 -0.0463,0 -0.10793,-0.11843 -0.13688,-0.26318 z"
           id="path17" /><path
           style="fill:#253d90;fill-opacity:1;stroke:none;stroke-width:0.344331;stroke-linecap:round;stroke-linejoin:round"
           d="m 147.65248,60.339198 c 0.15877,-0.13576 1.59367,-1.04269 3.18865,-2.01539 1.59498,-0.97271 5.15125,-3.16054 7.90281,-4.86185 5.39158,-3.33365 6.01495,-3.70015 6.11823,-3.59713 0.0371,0.037 0.0993,1.01556 0.13833,2.17461 0.039,1.15905 0.097,2.3587 0.12897,2.66588 0.0515,0.49531 0.0339,0.59093 -0.15593,0.84494 -0.92737,1.24126 -4.46106,2.97227 -7.77048,3.80643 -2.0161,0.50817 -7.48973,1.24271 -9.18841,1.23305 l -0.65085,-0.004 z"
           id="path18" /></g></g></g></svg>
